<?xml version="1.0" encoding="UTF-8" standalone="no"?>
<!-- Created with Inkscape (http://www.inkscape.org/) -->

<svg
   xmlns:dc="http://purl.org/dc/elements/1.1/"
   xmlns:cc="http://creativecommons.org/ns#"
   xmlns:rdf="http://www.w3.org/1999/02/22-rdf-syntax-ns#"
   xmlns:svg="http://www.w3.org/2000/svg"
   xmlns="http://www.w3.org/2000/svg"
   xmlns:sodipodi="http://sodipodi.sourceforge.net/DTD/sodipodi-0.dtd"
   xmlns:inkscape="http://www.inkscape.org/namespaces/inkscape"
   width="60.98"
   height="88.399017"
   id="svg3404"
   version="1.1"
   inkscape:version="0.48.5 r10040"
   sodipodi:docname="purge.svg">
  <defs
     id="defs3406" />
  <sodipodi:namedview
     id="base"
     pagecolor="#ffffff"
     bordercolor="#666666"
     borderopacity="1.0"
     inkscape:pageopacity="0.0"
     inkscape:pageshadow="2"
     inkscape:zoom="0.5"
     inkscape:cx="343.49"
     inkscape:cy="506.19953"
     inkscape:document-units="px"
     inkscape:current-layer="layer1"
     showgrid="false"
     inkscape:window-width="1920"
     inkscape:window-height="1127"
     inkscape:window-x="0"
     inkscape:window-y="25"
     inkscape:window-maximized="1"
     fit-margin-top="0"
     fit-margin-left="0"
     fit-margin-right="0"
     fit-margin-bottom="0" />
  <metadata
     id="metadata3409">
    <rdf:RDF>
      <cc:Work
         rdf:about="">
        <dc:format>image/svg+xml</dc:format>
        <dc:type
           rdf:resource="http://purl.org/dc/dcmitype/StillImage" />
        <dc:title />
      </cc:Work>
    </rdf:RDF>
  </metadata>
  <g
     inkscape:label="Layer 1"
     inkscape:groupmode="layer"
     id="layer1"
     transform="translate(-31.51,-950.16268)">
    <g
       transform="translate(17,950.0907)"
       id="g3323">
      <g
         id="g3325">
        <path
           inkscape:connector-curvature="0"
           d="m 45,88.471 c -16.812,0 -30.49,-13.68 -30.49,-30.494 0,-5.928 1.742,-11.709 5.038,-16.722 l 14,-24.531 c 0.875,-1.519 2.815,-2.036 4.33,-1.16 1.517,0.875 2.035,2.814 1.16,4.331 l -2.778,4.811 -11.309,19.86 c -2.72,4.149 -4.101,8.726 -4.101,13.411 0,13.318 10.834,24.154 24.149,24.154 13.315,0 24.149,-10.836 24.149,-24.154 0,-4.688 -1.383,-9.262 -3.998,-13.237 L 53.729,24.688 42.255,4.83 c -0.875,-1.516 -0.357,-3.455 1.16,-4.332 1.513,-0.876 3.451,-0.358 4.33,1.159 l 11.484,19.876 11.325,19.894 c 3.191,4.836 4.936,10.619 4.936,16.549 0,16.815 -13.678,30.495 -30.49,30.495 z"
           id="path3327" />
      </g>
      <g
         id="g3329">
        <path
           inkscape:connector-curvature="0"
           d="m 45.599,78.891 c -1.75,0 -3.17,-1.42 -3.17,-3.172 0,-1.75 1.42,-3.17 3.17,-3.17 8.141,0 14.762,-6.623 14.762,-14.764 0,-2.863 -0.846,-5.662 -2.445,-8.088 -0.962,-1.463 -0.558,-3.43 0.903,-4.392 1.462,-0.961 3.429,-0.558 4.393,0.904 2.283,3.467 3.49,7.469 3.49,11.576 -0.001,11.637 -9.467,21.106 -21.103,21.106 z"
           id="path3331" />
      </g>
    </g>
  </g>
</svg>
