<?xml version="1.0" encoding="UTF-8" standalone="no"?>
<!-- Created with Inkscape (http://www.inkscape.org/) -->

<svg
   xmlns:dc="http://purl.org/dc/elements/1.1/"
   xmlns:cc="http://creativecommons.org/ns#"
   xmlns:rdf="http://www.w3.org/1999/02/22-rdf-syntax-ns#"
   xmlns:svg="http://www.w3.org/2000/svg"
   xmlns="http://www.w3.org/2000/svg"
   xmlns:sodipodi="http://sodipodi.sourceforge.net/DTD/sodipodi-0.dtd"
   xmlns:inkscape="http://www.inkscape.org/namespaces/inkscape"
   width="74.003998"
   height="87.904999"
   id="svg3203"
   version="1.1"
   inkscape:version="0.48.5 r10040"
   sodipodi:docname="refill.svg">
  <defs
     id="defs3205" />
  <sodipodi:namedview
     id="base"
     pagecolor="#ffffff"
     bordercolor="#666666"
     borderopacity="1.0"
     inkscape:pageopacity="0.0"
     inkscape:pageshadow="2"
     inkscape:zoom="5.6"
     inkscape:cx="105.67056"
     inkscape:cy="57.70121"
     inkscape:document-units="px"
     inkscape:current-layer="layer1"
     showgrid="false"
     inkscape:window-width="1920"
     inkscape:window-height="1127"
     inkscape:window-x="0"
     inkscape:window-y="25"
     inkscape:window-maximized="1"
     fit-margin-top="0"
     fit-margin-left="0"
     fit-margin-right="0"
     fit-margin-bottom="0" />
  <metadata
     id="metadata3208">
    <rdf:RDF>
      <cc:Work
         rdf:about="">
        <dc:format>image/svg+xml</dc:format>
        <dc:type
           rdf:resource="http://purl.org/dc/dcmitype/StillImage" />
        <dc:title />
      </cc:Work>
    </rdf:RDF>
  </metadata>
  <g
     inkscape:label="Layer 1"
     inkscape:groupmode="layer"
     id="layer1"
     transform="translate(-29.57143,-946.62547)">
    <g
       transform="translate(-191.42857,945.57647)"
       id="g38">
      <g
         id="g40">
        <path
           inkscape:connector-curvature="0"
           d="m 291.845,88.954 c -1.745,0 -3.156,-1.415 -3.156,-3.157 V 24.386 c 0,-1.74 -1.416,-3.156 -3.156,-3.156 H 230.47 c -1.741,0 -3.156,1.416 -3.156,3.156 v 61.411 c 0,1.742 -1.414,3.157 -3.158,3.157 -1.742,0 -3.156,-1.415 -3.156,-3.157 V 24.386 c 0,-5.222 4.248,-9.469 9.471,-9.469 h 55.063 c 5.222,0 9.47,4.248 9.47,9.469 v 61.411 c -0.002,1.742 -1.414,3.157 -3.159,3.157 z"
           id="path42" />
      </g>
      <g
         id="g44">
        <path
           inkscape:connector-curvature="0"
           d="m 284.131,13.675 c -1.745,0 -3.157,-1.413 -3.157,-3.157 0,-1.74 -1.416,-3.156 -3.156,-3.156 h -15.434 c -1.74,0 -3.157,1.416 -3.157,3.156 0,1.744 -1.412,3.157 -3.156,3.157 -1.744,0 -3.156,-1.413 -3.156,-3.157 0,-5.222 4.248,-9.469 9.47,-9.469 h 15.434 c 5.222,0 9.47,4.248 9.47,9.469 -0.002,1.744 -1.414,3.157 -3.158,3.157 z"
           id="path46" />
      </g>
      <g
         id="g48">
        <path
           inkscape:connector-curvature="0"
           d="m 239.938,13.062 h -9.995 c -1.744,0 -3.157,-1.413 -3.157,-3.156 0,-1.744 1.413,-3.157 3.157,-3.157 h 9.995 c 1.744,0 3.157,1.413 3.157,3.157 0,1.743 -1.413,3.156 -3.157,3.156 z"
           id="path50" />
      </g>
      <g
         id="g52">
        <path
           inkscape:connector-curvature="0"
           d="m 279.811,77.339 c -0.815,0 -1.63,-0.317 -2.248,-0.942 L 235.471,33.669 c -1.225,-1.242 -1.21,-3.24 0.033,-4.463 1.24,-1.225 3.239,-1.209 4.463,0.033 l 42.092,42.728 c 1.223,1.242 1.211,3.238 -0.032,4.464 -0.615,0.602 -1.418,0.908 -2.216,0.908 z"
           id="path54" />
      </g>
      <g
         id="g56">
        <path
           inkscape:connector-curvature="0"
           d="m 263.566,50.605 c -0.799,0 -1.601,-0.304 -2.215,-0.908 -1.243,-1.225 -1.257,-3.223 -0.034,-4.464 l 15.996,-16.239 c 1.225,-1.241 3.223,-1.257 4.466,-0.034 1.244,1.224 1.256,3.222 0.035,4.465 l -15.997,16.241 c -0.62,0.623 -1.434,0.939 -2.251,0.939 z"
           id="path58" />
      </g>
      <g
         id="g60">
        <path
           inkscape:connector-curvature="0"
           d="m 237.719,77.339 c -0.801,0 -1.6,-0.306 -2.215,-0.909 -1.243,-1.226 -1.258,-3.222 -0.035,-4.464 l 15.997,-16.239 c 1.226,-1.241 3.223,-1.258 4.465,-0.034 1.242,1.223 1.257,3.222 0.034,4.466 l -15.997,16.238 c -0.618,0.624 -1.434,0.942 -2.249,0.942 z"
           id="path62" />
      </g>
    </g>
  </g>
</svg>
